<svg width="138" height="77" viewBox="0 0 138 77" fill="none" xmlns="http://www.w3.org/2000/svg">
<path d="M3.28 74C2.98667 74 2.73333 73.8933 2.52 73.68C2.30667 73.4667 2.2 73.2133 2.2 72.92V47.08C2.2 46.7867 2.30667 46.5333 2.52 46.32C2.73333 46.1067 2.98667 46 3.28 46H9.6C10.3467 46 10.92 46.36 11.32 47.08L17.12 56.68L22.92 47.08C23.32 46.36 23.8933 46 24.64 46H30.96C31.2533 46 31.5067 46.1067 31.72 46.32C31.9333 46.5333 32.04 46.7867 32.04 47.08V72.92C32.04 73.2133 31.9333 73.4667 31.72 73.68C31.5067 73.8933 31.2533 74 30.96 74H23.72C23.4267 74 23.1733 73.8933 22.96 73.68C22.7467 73.4667 22.64 73.2133 22.64 72.92V61.96L20 66.28C19.8133 66.5733 19.6 66.8133 19.36 67C19.1467 67.1867 18.8667 67.28 18.52 67.28H15.72C15.3733 67.28 15.08 67.1867 14.84 67C14.6267 66.8133 14.4267 66.5733 14.24 66.28L11.6 61.96V72.92C11.6 73.2133 11.4933 73.4667 11.28 73.68C11.0667 73.8933 10.8133 74 10.52 74H3.28ZM37.5378 74C37.2445 74 36.9911 73.8933 36.7778 73.68C36.5645 73.4667 36.4578 73.2133 36.4578 72.92V47.08C36.4578 46.7867 36.5645 46.5333 36.7778 46.32C36.9911 46.1067 37.2445 46 37.5378 46H58.0578C58.3511 46 58.6045 46.1067 58.8178 46.32C59.0311 46.5333 59.1378 46.7867 59.1378 47.08V52.72C59.1378 53.0133 59.0311 53.2667 58.8178 53.48C58.6045 53.6933 58.3511 53.8 58.0578 53.8H46.0578V56.32H57.1778C57.4711 56.32 57.7245 56.4267 57.9378 56.64C58.1511 56.8533 58.2578 57.1067 58.2578 57.4V62.6C58.2578 62.8933 58.1511 63.1467 57.9378 63.36C57.7245 63.5733 57.4711 63.68 57.1778 63.68H46.0578V66.2H58.3778C58.6711 66.2 58.9245 66.3067 59.1378 66.52C59.3511 66.7333 59.4578 66.9867 59.4578 67.28V72.92C59.4578 73.2133 59.3511 73.4667 59.1378 73.68C58.9245 73.8933 58.6711 74 58.3778 74H37.5378ZM64.2175 74C63.9242 74 63.6708 73.8933 63.4575 73.68C63.2442 73.4667 63.1375 73.2133 63.1375 72.92V47.08C63.1375 46.7867 63.2442 46.5333 63.4575 46.32C63.6708 46.1067 63.9242 46 64.2175 46H75.7375C78.2708 46 80.5242 46.4267 82.4975 47.28C84.4708 48.1333 86.0442 49.3867 87.2175 51.04C88.3908 52.6933 89.0175 54.68 89.0975 57C89.1508 58.4933 89.1775 59.5067 89.1775 60.04C89.1775 60.5467 89.1508 61.52 89.0975 62.96C88.9375 66.64 87.6842 69.4 85.3375 71.24C83.0175 73.08 79.8842 74 75.9375 74H64.2175ZM75.7375 66.2C76.6708 66.2 77.4175 65.9333 77.9775 65.4C78.5642 64.84 78.8842 64.0267 78.9375 62.96C78.9908 62.1867 79.0175 61.1867 79.0175 59.96C79.0175 58.7067 78.9908 57.72 78.9375 57C78.8842 55.9333 78.5375 55.1333 77.8975 54.6C77.2842 54.0667 76.4975 53.8 75.5375 53.8H73.1375V66.2H75.7375ZM93.8269 74C93.5335 74 93.2802 73.8933 93.0669 73.68C92.8535 73.4667 92.7469 73.2133 92.7469 72.92V47.08C92.7469 46.7867 92.8535 46.5333 93.0669 46.32C93.2802 46.1067 93.5335 46 93.8269 46H101.987C102.28 46 102.534 46.1067 102.747 46.32C102.96 46.5333 103.067 46.7867 103.067 47.08V72.92C103.067 73.2133 102.96 73.4667 102.747 73.68C102.534 73.8933 102.28 74 101.987 74H93.8269ZM106.153 74C105.913 74 105.7 73.92 105.513 73.76C105.353 73.5733 105.273 73.36 105.273 73.12C105.273 73.0133 105.287 72.92 105.313 72.84L114.233 47.32C114.34 46.9733 114.54 46.6667 114.833 46.4C115.127 46.1333 115.527 46 116.033 46H124.713C125.22 46 125.62 46.1333 125.913 46.4C126.207 46.6667 126.407 46.9733 126.513 47.32L135.433 72.84C135.46 72.92 135.473 73.0133 135.473 73.12C135.473 73.36 135.38 73.5733 135.193 73.76C135.033 73.92 134.833 74 134.593 74H127.193C126.393 74 125.873 73.6667 125.633 73L124.673 70.36H116.073L115.113 73C114.873 73.6667 114.353 74 113.553 74H106.153ZM118.113 62.56H122.633L120.353 55.12L118.113 62.56Z" fill="black"/>
<path d="M22.56 37C22.2933 37 22.0667 36.92 21.88 36.76C21.72 36.5733 21.64 36.3467 21.64 36.08V12.44H13.92C13.6533 12.44 13.4267 12.36 13.24 12.2C13.08 12.0133 13 11.7867 13 11.52V9.96C13 9.66666 13.08 9.44 13.24 9.28C13.4267 9.09333 13.6533 9 13.92 9H33.12C33.4133 9 33.64 9.09333 33.8 9.28C33.96 9.44 34.04 9.66666 34.04 9.96V11.52C34.04 11.7867 33.9467 12.0133 33.76 12.2C33.6 12.36 33.3867 12.44 33.12 12.44H25.44V36.08C25.44 36.3467 25.3467 36.5733 25.16 36.76C24.9733 36.92 24.7467 37 24.48 37H22.56ZM39.4859 37C39.2193 37 39.0059 36.92 38.8459 36.76C38.6859 36.5733 38.6059 36.3333 38.6059 36.04V9.96C38.6059 9.66666 38.6859 9.44 38.8459 9.28C39.0059 9.09333 39.2326 9 39.5259 9H41.4459C41.7126 9 41.9259 9.09333 42.0859 9.28C42.2726 9.44 42.3659 9.66666 42.3659 9.96V30.88L57.4459 9.56C57.6593 9.18666 57.9793 9 58.4059 9H60.2859C60.5526 9 60.7659 9.09333 60.9259 9.28C61.1126 9.44 61.2059 9.66666 61.2059 9.96V36.08C61.2059 36.3467 61.1126 36.5733 60.9259 36.76C60.7659 36.92 60.5526 37 60.2859 37H58.3659C58.0993 37 57.8726 36.92 57.6859 36.76C57.4993 36.5733 57.4059 36.3467 57.4059 36.08V15.36L42.3659 36.44C42.1526 36.8133 41.8326 37 41.4059 37H39.4859ZM69.0953 37C68.8286 37 68.6153 36.92 68.4553 36.76C68.2953 36.5733 68.2153 36.3467 68.2153 36.08V9.96C68.2153 9.66666 68.2953 9.44 68.4553 9.28C68.6153 9.09333 68.8286 9 69.0953 9H88.7353C89.0286 9 89.2553 9.09333 89.4153 9.28C89.602 9.44 89.6953 9.66666 89.6953 9.96V36.08C89.6953 36.3467 89.602 36.5733 89.4153 36.76C89.2286 36.92 89.002 37 88.7353 37H86.8153C86.5486 37 86.322 36.92 86.1353 36.76C85.9753 36.5733 85.8953 36.3467 85.8953 36.08V12.48H71.9753V36.08C71.9753 36.3467 71.882 36.5733 71.6953 36.76C71.5086 36.92 71.282 37 71.0153 37H69.0953ZM94.7719 37C94.5585 37 94.3719 36.92 94.2119 36.76C94.0519 36.6 93.9719 36.4133 93.9719 36.2L94.0519 35.76L103.972 9.88C104.185 9.29333 104.612 9 105.252 9H107.812C108.452 9 108.879 9.29333 109.092 9.88L119.012 35.76L119.092 36.2C119.092 36.4133 118.999 36.6 118.812 36.76C118.652 36.92 118.465 37 118.252 37H116.372C116.105 37 115.879 36.9333 115.692 36.8C115.532 36.64 115.425 36.48 115.372 36.32L113.132 30.56H99.8919L97.6919 36.32C97.4785 36.7733 97.1452 37 96.6919 37H94.7719ZM101.052 27.24H112.012L106.532 12.88L101.052 27.24Z" fill="black"/>
<line x1="3" y1="38.5" x2="131" y2="38.5" stroke="black"/>
<line x1="2.5" y1="39" x2="2.5" y2="5" stroke="black"/>
<line x1="2" y1="4.5" x2="131" y2="4.5" stroke="black"/>
<line x1="131.5" y1="4" x2="131.5" y2="39" stroke="black"/>
</svg>
