<svg width="160" height="27" viewBox="0 0 160 27" fill="none" xmlns="http://www.w3.org/2000/svg">
<path d="M17.3433 8.15527H11.6304V24H9.29883V8.15527H3.59814V6.22656H17.3433V8.15527ZM31.186 6.22656H33.5298V24H31.186V10.3037L22.4336 24H20.0776V6.22656H22.4336V19.9229L31.186 6.22656ZM51.3765 24H49.0205V8.15527H40.2559V24H37.9121V6.22656H51.3765V24ZM65.4634 19.3613H58.0171L56.3447 24H53.9277L60.7148 6.22656H62.7656L69.5649 24H67.1602L65.4634 19.3613ZM58.7251 17.4326H64.7676L61.7402 9.11963L58.7251 17.4326Z" fill="black"/>
<line x1="0.5" y1="1" x2="0.5" y2="27" stroke="black"/>
<line y1="26.5" x2="71" y2="26.5" stroke="black"/>
<line y1="0.5" x2="71" y2="0.5" stroke="black"/>
<line x1="70.5" y1="27" x2="70.5" y2="1" stroke="black"/>
<path d="M73.05 24C72.8667 24 72.7083 23.9333 72.575 23.8C72.4417 23.6667 72.375 23.5083 72.375 23.325V7.175C72.375 6.99167 72.4417 6.83333 72.575 6.7C72.7083 6.56667 72.8667 6.5 73.05 6.5H77C77.4667 6.5 77.825 6.725 78.075 7.175L81.7 13.175L85.325 7.175C85.575 6.725 85.9333 6.5 86.4 6.5H90.35C90.5333 6.5 90.6917 6.56667 90.825 6.7C90.9583 6.83333 91.025 6.99167 91.025 7.175V23.325C91.025 23.5083 90.9583 23.6667 90.825 23.8C90.6917 23.9333 90.5333 24 90.35 24H85.825C85.6417 24 85.4833 23.9333 85.35 23.8C85.2167 23.6667 85.15 23.5083 85.15 23.325V16.475L83.5 19.175C83.3833 19.3583 83.25 19.5083 83.1 19.625C82.9667 19.7417 82.7917 19.8 82.575 19.8H80.825C80.6083 19.8 80.425 19.7417 80.275 19.625C80.1417 19.5083 80.0167 19.3583 79.9 19.175L78.25 16.475V23.325C78.25 23.5083 78.1833 23.6667 78.05 23.8C77.9167 23.9333 77.7583 24 77.575 24H73.05ZM94.4611 24C94.2778 24 94.1195 23.9333 93.9861 23.8C93.8528 23.6667 93.7861 23.5083 93.7861 23.325V7.175C93.7861 6.99167 93.8528 6.83333 93.9861 6.7C94.1195 6.56667 94.2778 6.5 94.4611 6.5H107.286C107.469 6.5 107.628 6.56667 107.761 6.7C107.894 6.83333 107.961 6.99167 107.961 7.175V10.7C107.961 10.8833 107.894 11.0417 107.761 11.175C107.628 11.3083 107.469 11.375 107.286 11.375H99.7861V12.95H106.736C106.919 12.95 107.078 13.0167 107.211 13.15C107.344 13.2833 107.411 13.4417 107.411 13.625V16.875C107.411 17.0583 107.344 17.2167 107.211 17.35C107.078 17.4833 106.919 17.55 106.736 17.55H99.7861V19.125H107.486C107.669 19.125 107.828 19.1917 107.961 19.325C108.094 19.4583 108.161 19.6167 108.161 19.8V23.325C108.161 23.5083 108.094 23.6667 107.961 23.8C107.828 23.9333 107.669 24 107.486 24H94.4611ZM111.136 24C110.953 24 110.794 23.9333 110.661 23.8C110.528 23.6667 110.461 23.5083 110.461 23.325V7.175C110.461 6.99167 110.528 6.83333 110.661 6.7C110.794 6.56667 110.953 6.5 111.136 6.5H118.336C119.919 6.5 121.328 6.76667 122.561 7.3C123.794 7.83333 124.778 8.61667 125.511 9.65C126.244 10.6833 126.636 11.925 126.686 13.375C126.719 14.3083 126.736 14.9417 126.736 15.275C126.736 15.5917 126.719 16.2 126.686 17.1C126.586 19.4 125.803 21.125 124.336 22.275C122.886 23.425 120.928 24 118.461 24H111.136ZM118.336 19.125C118.919 19.125 119.386 18.9583 119.736 18.625C120.103 18.275 120.303 17.7667 120.336 17.1C120.369 16.6167 120.386 15.9917 120.386 15.225C120.386 14.4417 120.369 13.825 120.336 13.375C120.303 12.7083 120.086 12.2083 119.686 11.875C119.303 11.5417 118.811 11.375 118.211 11.375H116.711V19.125H118.336ZM129.642 24C129.458 24 129.3 23.9333 129.167 23.8C129.033 23.6667 128.967 23.5083 128.967 23.325V7.175C128.967 6.99167 129.033 6.83333 129.167 6.7C129.3 6.56667 129.458 6.5 129.642 6.5H134.742C134.925 6.5 135.083 6.56667 135.217 6.7C135.35 6.83333 135.417 6.99167 135.417 7.175V23.325C135.417 23.5083 135.35 23.6667 135.217 23.8C135.083 23.9333 134.925 24 134.742 24H129.642ZM137.346 24C137.196 24 137.063 23.95 136.946 23.85C136.846 23.7333 136.796 23.6 136.796 23.45C136.796 23.3833 136.804 23.325 136.821 23.275L142.396 7.325C142.463 7.10833 142.588 6.91667 142.771 6.75C142.954 6.58333 143.204 6.5 143.521 6.5H148.946C149.263 6.5 149.513 6.58333 149.696 6.75C149.879 6.91667 150.004 7.10833 150.071 7.325L155.646 23.275C155.663 23.325 155.671 23.3833 155.671 23.45C155.671 23.6 155.613 23.7333 155.496 23.85C155.396 23.95 155.271 24 155.121 24H150.496C149.996 24 149.671 23.7917 149.521 23.375L148.921 21.725H143.546L142.946 23.375C142.796 23.7917 142.471 24 141.971 24H137.346ZM144.821 16.85H147.646L146.221 12.2L144.821 16.85Z" fill="black"/>
</svg>
