<svg width="36" height="23" viewBox="0 0 36 23" fill="none" xmlns="http://www.w3.org/2000/svg">
<g style="mix-blend-mode:darken">
<path d="M4.64 10C4.57333 10 4.51667 9.98 4.47 9.94C4.43 9.89333 4.41 9.83667 4.41 9.77V3.86H2.48C2.41333 3.86 2.35667 3.84 2.31 3.8C2.27 3.75333 2.25 3.69667 2.25 3.63V3.24C2.25 3.16667 2.27 3.11 2.31 3.07C2.35667 3.02333 2.41333 3 2.48 3H7.28C7.35333 3 7.41 3.02333 7.45 3.07C7.49 3.11 7.51 3.16667 7.51 3.24V3.63C7.51 3.69667 7.48667 3.75333 7.44 3.8C7.4 3.84 7.34667 3.86 7.28 3.86H5.36V9.77C5.36 9.83667 5.33667 9.89333 5.29 9.94C5.24333 9.98 5.18667 10 5.12 10H4.64ZM8.87148 10C8.80482 10 8.75148 9.98 8.71148 9.94C8.67148 9.89333 8.65148 9.83333 8.65148 9.76V3.24C8.65148 3.16667 8.67148 3.11 8.71148 3.07C8.75148 3.02333 8.80815 3 8.88148 3H9.36148C9.42815 3 9.48148 3.02333 9.52148 3.07C9.56815 3.11 9.59148 3.16667 9.59148 3.24V8.47L13.3615 3.14C13.4148 3.04667 13.4948 3 13.6015 3H14.0715C14.1382 3 14.1915 3.02333 14.2315 3.07C14.2782 3.11 14.3015 3.16667 14.3015 3.24V9.77C14.3015 9.83667 14.2782 9.89333 14.2315 9.94C14.1915 9.98 14.1382 10 14.0715 10H13.5915C13.5248 10 13.4682 9.98 13.4215 9.94C13.3748 9.89333 13.3515 9.83667 13.3515 9.77V4.59L9.59148 9.86C9.53815 9.95333 9.45815 10 9.35148 10H8.87148ZM16.2738 10C16.2072 10 16.1538 9.98 16.1138 9.94C16.0738 9.89333 16.0538 9.83667 16.0538 9.77V3.24C16.0538 3.16667 16.0738 3.11 16.1138 3.07C16.1538 3.02333 16.2072 3 16.2738 3H21.1838C21.2572 3 21.3138 3.02333 21.3538 3.07C21.4005 3.11 21.4238 3.16667 21.4238 3.24V9.77C21.4238 9.83667 21.4005 9.89333 21.3538 9.94C21.3072 9.98 21.2505 10 21.1838 10H20.7038C20.6372 10 20.5805 9.98 20.5338 9.94C20.4938 9.89333 20.4738 9.83667 20.4738 9.77V3.87H16.9938V9.77C16.9938 9.83667 16.9705 9.89333 16.9238 9.94C16.8772 9.98 16.8205 10 16.7538 10H16.2738ZM22.693 10C22.6396 10 22.593 9.98 22.553 9.94C22.513 9.9 22.493 9.85333 22.493 9.8L22.513 9.69L24.993 3.22C25.0463 3.07333 25.153 3 25.313 3H25.953C26.113 3 26.2196 3.07333 26.273 3.22L28.753 9.69L28.773 9.8C28.773 9.85333 28.7496 9.9 28.703 9.94C28.663 9.98 28.6163 10 28.563 10H28.093C28.0263 10 27.9696 9.98333 27.923 9.95C27.883 9.91 27.8563 9.87 27.843 9.83L27.283 8.39H23.973L23.423 9.83C23.3696 9.94333 23.2863 10 23.173 10H22.693ZM24.263 7.56H27.003L25.633 3.97L24.263 7.56Z" fill="black"/>
</g>
<path d="M0.82 20C0.746667 20 0.683333 19.9733 0.63 19.92C0.576667 19.8667 0.55 19.8033 0.55 19.73V13.27C0.55 13.1967 0.576667 13.1333 0.63 13.08C0.683333 13.0267 0.746667 13 0.82 13H2.4C2.58667 13 2.73 13.09 2.83 13.27L4.28 15.67L5.73 13.27C5.83 13.09 5.97333 13 6.16 13H7.74C7.81333 13 7.87667 13.0267 7.93 13.08C7.98333 13.1333 8.01 13.1967 8.01 13.27V19.73C8.01 19.8033 7.98333 19.8667 7.93 19.92C7.87667 19.9733 7.81333 20 7.74 20H5.93C5.85667 20 5.79333 19.9733 5.74 19.92C5.68667 19.8667 5.66 19.8033 5.66 19.73V16.99L5 18.07C4.95333 18.1433 4.9 18.2033 4.84 18.25C4.78667 18.2967 4.71667 18.32 4.63 18.32H3.93C3.84333 18.32 3.77 18.2967 3.71 18.25C3.65667 18.2033 3.60667 18.1433 3.56 18.07L2.9 16.99V19.73C2.9 19.8033 2.87333 19.8667 2.82 19.92C2.76667 19.9733 2.70333 20 2.63 20H0.82ZM9.38445 20C9.31112 20 9.24779 19.9733 9.19445 19.92C9.14112 19.8667 9.11445 19.8033 9.11445 19.73V13.27C9.11445 13.1967 9.14112 13.1333 9.19445 13.08C9.24779 13.0267 9.31112 13 9.38445 13H14.5145C14.5878 13 14.6511 13.0267 14.7045 13.08C14.7578 13.1333 14.7845 13.1967 14.7845 13.27V14.68C14.7845 14.7533 14.7578 14.8167 14.7045 14.87C14.6511 14.9233 14.5878 14.95 14.5145 14.95H11.5145V15.58H14.2945C14.3678 15.58 14.4311 15.6067 14.4845 15.66C14.5378 15.7133 14.5645 15.7767 14.5645 15.85V17.15C14.5645 17.2233 14.5378 17.2867 14.4845 17.34C14.4311 17.3933 14.3678 17.42 14.2945 17.42H11.5145V18.05H14.5945C14.6678 18.05 14.7311 18.0767 14.7845 18.13C14.8378 18.1833 14.8645 18.2467 14.8645 18.32V19.73C14.8645 19.8033 14.8378 19.8667 14.7845 19.92C14.7311 19.9733 14.6678 20 14.5945 20H9.38445ZM16.0544 20C15.981 20 15.9177 19.9733 15.8644 19.92C15.811 19.8667 15.7844 19.8033 15.7844 19.73V13.27C15.7844 13.1967 15.811 13.1333 15.8644 13.08C15.9177 13.0267 15.981 13 16.0544 13H18.9344C19.5677 13 20.131 13.1067 20.6244 13.32C21.1177 13.5333 21.511 13.8467 21.8044 14.26C22.0977 14.6733 22.2544 15.17 22.2744 15.75C22.2877 16.1233 22.2944 16.3767 22.2944 16.51C22.2944 16.6367 22.2877 16.88 22.2744 17.24C22.2344 18.16 21.921 18.85 21.3344 19.31C20.7544 19.77 19.971 20 18.9844 20H16.0544ZM18.9344 18.05C19.1677 18.05 19.3544 17.9833 19.4944 17.85C19.641 17.71 19.721 17.5067 19.7344 17.24C19.7477 17.0467 19.7544 16.7967 19.7544 16.49C19.7544 16.1767 19.7477 15.93 19.7344 15.75C19.721 15.4833 19.6344 15.2833 19.4744 15.15C19.321 15.0167 19.1244 14.95 18.8844 14.95H18.2844V18.05H18.9344ZM23.4567 20C23.3834 20 23.3201 19.9733 23.2667 19.92C23.2134 19.8667 23.1867 19.8033 23.1867 19.73V13.27C23.1867 13.1967 23.2134 13.1333 23.2667 13.08C23.3201 13.0267 23.3834 13 23.4567 13H25.4967C25.5701 13 25.6334 13.0267 25.6867 13.08C25.7401 13.1333 25.7667 13.1967 25.7667 13.27V19.73C25.7667 19.8033 25.7401 19.8667 25.6867 19.92C25.6334 19.9733 25.5701 20 25.4967 20H23.4567ZM26.5384 20C26.4784 20 26.425 19.98 26.3784 19.94C26.3384 19.8933 26.3184 19.84 26.3184 19.78C26.3184 19.7533 26.3217 19.73 26.3284 19.71L28.5584 13.33C28.585 13.2433 28.635 13.1667 28.7084 13.1C28.7817 13.0333 28.8817 13 29.0084 13H31.1784C31.305 13 31.405 13.0333 31.4784 13.1C31.5517 13.1667 31.6017 13.2433 31.6284 13.33L33.8584 19.71C33.865 19.73 33.8684 19.7533 33.8684 19.78C33.8684 19.84 33.845 19.8933 33.7984 19.94C33.7584 19.98 33.7084 20 33.6484 20H31.7984C31.5984 20 31.4684 19.9167 31.4084 19.75L31.1684 19.09H29.0184L28.7784 19.75C28.7184 19.9167 28.5884 20 28.3884 20H26.5384ZM29.5284 17.14H30.6584L30.0884 15.28L29.5284 17.14Z" fill="black"/>
<line x1="-3.60355e-09" y1="0.5" x2="32" y2="0.5" stroke="black"/>
<line x1="0.5" y1="1" x2="0.5" y2="12" stroke="black"/>
<line x1="32" y1="11.5" x2="1" y2="11.5" stroke="black"/>
<line x1="31.5" x2="31.5" y2="11" stroke="black"/>
</svg>
